<mxfile host="Electron" modified="2024-01-11T08:49:04.547Z" agent="Mozilla/5.0 (Windows NT 10.0; Win64; x64) AppleWebKit/537.36 (KHTML, like Gecko) draw.io/22.0.3 Chrome/114.0.5735.289 Electron/25.8.4 Safari/537.36" etag="6sGePXgvy3Jl0_rdm8v6" version="22.0.3" type="device">
  <diagram name="第 1 页" id="biJTxp_epNKLioCo2FTQ">
    <mxGraphModel dx="1467" dy="877" grid="1" gridSize="10" guides="1" tooltips="1" connect="1" arrows="1" fold="1" page="1" pageScale="1" pageWidth="3300" pageHeight="4681" math="0" shadow="0">
      <root>
        <mxCell id="0" />
        <mxCell id="1" parent="0" />
        <mxCell id="WtgwqhPKlennC71DiVTJ-20" value="" style="rounded=1;whiteSpace=wrap;html=1;" vertex="1" parent="1">
          <mxGeometry x="544.5" y="145" width="611" height="230" as="geometry" />
        </mxCell>
        <mxCell id="WtgwqhPKlennC71DiVTJ-27" style="edgeStyle=orthogonalEdgeStyle;rounded=1;orthogonalLoop=1;jettySize=auto;html=1;entryX=0;entryY=0.5;entryDx=0;entryDy=0;" edge="1" parent="1" source="WtgwqhPKlennC71DiVTJ-1" target="WtgwqhPKlennC71DiVTJ-2">
          <mxGeometry relative="1" as="geometry" />
        </mxCell>
        <mxCell id="WtgwqhPKlennC71DiVTJ-1" value="2" style="rounded=1;whiteSpace=wrap;html=1;" vertex="1" parent="1">
          <mxGeometry x="160" y="230" width="120" height="60" as="geometry" />
        </mxCell>
        <mxCell id="WtgwqhPKlennC71DiVTJ-25" style="edgeStyle=orthogonalEdgeStyle;rounded=1;orthogonalLoop=1;jettySize=auto;html=1;entryX=0;entryY=0.5;entryDx=0;entryDy=0;" edge="1" parent="1" source="WtgwqhPKlennC71DiVTJ-2" target="WtgwqhPKlennC71DiVTJ-3">
          <mxGeometry relative="1" as="geometry">
            <Array as="points">
              <mxPoint x="490" y="260" />
              <mxPoint x="490" y="200" />
              <mxPoint x="770" y="200" />
              <mxPoint x="770" y="260" />
            </Array>
          </mxGeometry>
        </mxCell>
        <mxCell id="WtgwqhPKlennC71DiVTJ-2" value="1" style="rounded=1;whiteSpace=wrap;html=1;" vertex="1" parent="1">
          <mxGeometry x="350" y="230" width="120" height="60" as="geometry" />
        </mxCell>
        <mxCell id="WtgwqhPKlennC71DiVTJ-23" style="edgeStyle=orthogonalEdgeStyle;rounded=1;orthogonalLoop=1;jettySize=auto;html=1;entryX=0;entryY=0.5;entryDx=0;entryDy=0;exitX=1;exitY=0.5;exitDx=0;exitDy=0;" edge="1" parent="1" source="WtgwqhPKlennC71DiVTJ-3" target="WtgwqhPKlennC71DiVTJ-18">
          <mxGeometry relative="1" as="geometry">
            <Array as="points">
              <mxPoint x="950" y="260" />
              <mxPoint x="950" y="180" />
              <mxPoint x="570" y="180" />
              <mxPoint x="570" y="260" />
            </Array>
          </mxGeometry>
        </mxCell>
        <mxCell id="WtgwqhPKlennC71DiVTJ-3" value="4" style="rounded=1;whiteSpace=wrap;html=1;" vertex="1" parent="1">
          <mxGeometry x="790" y="230" width="120" height="60" as="geometry" />
        </mxCell>
        <mxCell id="WtgwqhPKlennC71DiVTJ-4" value="null" style="rounded=1;whiteSpace=wrap;html=1;" vertex="1" parent="1">
          <mxGeometry x="1010" y="230" width="120" height="60" as="geometry" />
        </mxCell>
        <mxCell id="WtgwqhPKlennC71DiVTJ-24" style="edgeStyle=orthogonalEdgeStyle;rounded=1;orthogonalLoop=1;jettySize=auto;html=1;exitX=1;exitY=0.5;exitDx=0;exitDy=0;" edge="1" parent="1" source="WtgwqhPKlennC71DiVTJ-18" target="WtgwqhPKlennC71DiVTJ-4">
          <mxGeometry relative="1" as="geometry">
            <Array as="points">
              <mxPoint x="760" y="260" />
              <mxPoint x="760" y="330" />
              <mxPoint x="970" y="330" />
              <mxPoint x="970" y="260" />
            </Array>
          </mxGeometry>
        </mxCell>
        <mxCell id="WtgwqhPKlennC71DiVTJ-18" value="3" style="rounded=1;whiteSpace=wrap;html=1;" vertex="1" parent="1">
          <mxGeometry x="610" y="230" width="120" height="60" as="geometry" />
        </mxCell>
        <mxCell id="WtgwqhPKlennC71DiVTJ-21" value="head" style="text;html=1;strokeColor=none;fillColor=none;align=center;verticalAlign=middle;whiteSpace=wrap;rounded=1;" vertex="1" parent="1">
          <mxGeometry x="634" y="300" width="60" height="30" as="geometry" />
        </mxCell>
        <mxCell id="WtgwqhPKlennC71DiVTJ-19" value="tmp" style="text;html=1;align=center;verticalAlign=middle;resizable=0;points=[];autosize=1;strokeColor=none;fillColor=none;rounded=1;" vertex="1" parent="1">
          <mxGeometry x="1010" y="190" width="40" height="30" as="geometry" />
        </mxCell>
        <mxCell id="WtgwqhPKlennC71DiVTJ-22" value="p" style="text;html=1;strokeColor=none;fillColor=none;align=center;verticalAlign=middle;whiteSpace=wrap;rounded=1;" vertex="1" parent="1">
          <mxGeometry x="820" y="300" width="60" height="30" as="geometry" />
        </mxCell>
        <mxCell id="WtgwqhPKlennC71DiVTJ-28" value="" style="rounded=1;whiteSpace=wrap;html=1;" vertex="1" parent="1">
          <mxGeometry x="568" y="451" width="590" height="210" as="geometry" />
        </mxCell>
        <mxCell id="WtgwqhPKlennC71DiVTJ-45" style="edgeStyle=orthogonalEdgeStyle;rounded=1;orthogonalLoop=1;jettySize=auto;html=1;entryX=0;entryY=0.5;entryDx=0;entryDy=0;" edge="1" parent="1" source="WtgwqhPKlennC71DiVTJ-30" target="WtgwqhPKlennC71DiVTJ-28">
          <mxGeometry relative="1" as="geometry">
            <Array as="points">
              <mxPoint x="318" y="561" />
              <mxPoint x="318" y="651" />
              <mxPoint x="518" y="651" />
              <mxPoint x="518" y="561" />
              <mxPoint x="568" y="561" />
            </Array>
          </mxGeometry>
        </mxCell>
        <mxCell id="WtgwqhPKlennC71DiVTJ-30" value="2" style="rounded=1;whiteSpace=wrap;html=1;" vertex="1" parent="1">
          <mxGeometry x="168" y="531" width="120" height="60" as="geometry" />
        </mxCell>
        <mxCell id="WtgwqhPKlennC71DiVTJ-44" style="edgeStyle=orthogonalEdgeStyle;rounded=1;orthogonalLoop=1;jettySize=auto;html=1;entryX=0;entryY=0.5;entryDx=0;entryDy=0;" edge="1" parent="1" source="WtgwqhPKlennC71DiVTJ-32" target="WtgwqhPKlennC71DiVTJ-30">
          <mxGeometry relative="1" as="geometry">
            <Array as="points">
              <mxPoint x="498" y="561" />
              <mxPoint x="498" y="471" />
              <mxPoint x="128" y="471" />
              <mxPoint x="128" y="561" />
            </Array>
          </mxGeometry>
        </mxCell>
        <mxCell id="WtgwqhPKlennC71DiVTJ-32" value="1" style="rounded=1;whiteSpace=wrap;html=1;" vertex="1" parent="1">
          <mxGeometry x="348" y="531" width="120" height="60" as="geometry" />
        </mxCell>
        <mxCell id="WtgwqhPKlennC71DiVTJ-34" value="3" style="rounded=1;whiteSpace=wrap;html=1;" vertex="1" parent="1">
          <mxGeometry x="797" y="531" width="120" height="60" as="geometry" />
        </mxCell>
        <mxCell id="WtgwqhPKlennC71DiVTJ-35" value="null" style="rounded=1;whiteSpace=wrap;html=1;" vertex="1" parent="1">
          <mxGeometry x="988" y="531" width="120" height="60" as="geometry" />
        </mxCell>
        <mxCell id="WtgwqhPKlennC71DiVTJ-37" value="4" style="rounded=1;whiteSpace=wrap;html=1;" vertex="1" parent="1">
          <mxGeometry x="617" y="531" width="120" height="60" as="geometry" />
        </mxCell>
        <mxCell id="WtgwqhPKlennC71DiVTJ-41" value="tmp" style="text;html=1;strokeColor=none;fillColor=none;align=center;verticalAlign=middle;whiteSpace=wrap;rounded=1;" vertex="1" parent="1">
          <mxGeometry x="828" y="461" width="60" height="30" as="geometry" />
        </mxCell>
        <mxCell id="WtgwqhPKlennC71DiVTJ-42" value="p" style="text;html=1;align=center;verticalAlign=middle;resizable=0;points=[];autosize=1;strokeColor=none;fillColor=none;rounded=1;" vertex="1" parent="1">
          <mxGeometry x="393" y="601" width="30" height="30" as="geometry" />
        </mxCell>
        <mxCell id="WtgwqhPKlennC71DiVTJ-43" value="head" style="text;html=1;align=center;verticalAlign=middle;resizable=0;points=[];autosize=1;strokeColor=none;fillColor=none;rounded=1;" vertex="1" parent="1">
          <mxGeometry x="203" y="601" width="50" height="30" as="geometry" />
        </mxCell>
        <mxCell id="WtgwqhPKlennC71DiVTJ-49" style="edgeStyle=orthogonalEdgeStyle;rounded=1;orthogonalLoop=1;jettySize=auto;html=1;entryX=0;entryY=0.5;entryDx=0;entryDy=0;" edge="1" parent="1" source="WtgwqhPKlennC71DiVTJ-47" target="WtgwqhPKlennC71DiVTJ-48">
          <mxGeometry relative="1" as="geometry" />
        </mxCell>
        <mxCell id="WtgwqhPKlennC71DiVTJ-47" value="&lt;font style=&quot;font-size: 20px;&quot;&gt;[2, 1, 3, 4]&lt;/font&gt;" style="text;html=1;strokeColor=#d79b00;fillColor=#ffe6cc;align=center;verticalAlign=middle;whiteSpace=wrap;rounded=1;" vertex="1" parent="1">
          <mxGeometry x="323" y="739" width="242" height="130" as="geometry" />
        </mxCell>
        <mxCell id="WtgwqhPKlennC71DiVTJ-48" value="&lt;font style=&quot;font-size: 20px;&quot;&gt;[1, 2, 4, 3]&lt;/font&gt;" style="text;html=1;strokeColor=#d79b00;fillColor=#ffe6cc;align=center;verticalAlign=middle;whiteSpace=wrap;rounded=1;" vertex="1" parent="1">
          <mxGeometry x="695" y="739" width="242" height="130" as="geometry" />
        </mxCell>
        <mxCell id="WtgwqhPKlennC71DiVTJ-59" style="edgeStyle=orthogonalEdgeStyle;rounded=1;orthogonalLoop=1;jettySize=auto;html=1;entryX=0;entryY=0.5;entryDx=0;entryDy=0;" edge="1" parent="1" source="WtgwqhPKlennC71DiVTJ-50" target="WtgwqhPKlennC71DiVTJ-52">
          <mxGeometry relative="1" as="geometry">
            <Array as="points">
              <mxPoint x="320" y="1120" />
              <mxPoint x="320" y="1060" />
              <mxPoint x="550" y="1060" />
              <mxPoint x="550" y="1120" />
            </Array>
          </mxGeometry>
        </mxCell>
        <mxCell id="WtgwqhPKlennC71DiVTJ-50" value="dummy（0）" style="rounded=1;whiteSpace=wrap;html=1;" vertex="1" parent="1">
          <mxGeometry x="180" y="1090" width="120" height="60" as="geometry" />
        </mxCell>
        <mxCell id="WtgwqhPKlennC71DiVTJ-57" style="edgeStyle=orthogonalEdgeStyle;rounded=1;orthogonalLoop=1;jettySize=auto;html=1;entryX=0;entryY=0.5;entryDx=0;entryDy=0;" edge="1" parent="1" source="WtgwqhPKlennC71DiVTJ-51" target="WtgwqhPKlennC71DiVTJ-53">
          <mxGeometry relative="1" as="geometry">
            <Array as="points">
              <mxPoint x="530" y="1120" />
              <mxPoint x="530" y="1200" />
              <mxPoint x="740" y="1200" />
              <mxPoint x="740" y="1120" />
            </Array>
          </mxGeometry>
        </mxCell>
        <mxCell id="WtgwqhPKlennC71DiVTJ-51" value="head（2）" style="rounded=1;whiteSpace=wrap;html=1;" vertex="1" parent="1">
          <mxGeometry x="380" y="1090" width="120" height="60" as="geometry" />
        </mxCell>
        <mxCell id="WtgwqhPKlennC71DiVTJ-58" style="edgeStyle=orthogonalEdgeStyle;rounded=1;orthogonalLoop=1;jettySize=auto;html=1;entryX=0;entryY=0.5;entryDx=0;entryDy=0;" edge="1" parent="1" source="WtgwqhPKlennC71DiVTJ-52" target="WtgwqhPKlennC71DiVTJ-51">
          <mxGeometry relative="1" as="geometry">
            <Array as="points">
              <mxPoint x="720" y="1120" />
              <mxPoint x="720" y="1040" />
              <mxPoint x="350" y="1040" />
              <mxPoint x="350" y="1120" />
            </Array>
          </mxGeometry>
        </mxCell>
        <mxCell id="WtgwqhPKlennC71DiVTJ-52" value="（1）" style="rounded=1;whiteSpace=wrap;html=1;" vertex="1" parent="1">
          <mxGeometry x="580" y="1090" width="120" height="60" as="geometry" />
        </mxCell>
        <mxCell id="WtgwqhPKlennC71DiVTJ-53" value="（null）" style="rounded=1;whiteSpace=wrap;html=1;" vertex="1" parent="1">
          <mxGeometry x="780" y="1090" width="120" height="60" as="geometry" />
        </mxCell>
        <mxCell id="WtgwqhPKlennC71DiVTJ-54" value="pre" style="text;html=1;strokeColor=none;fillColor=none;align=center;verticalAlign=middle;whiteSpace=wrap;rounded=1;" vertex="1" parent="1">
          <mxGeometry x="210" y="1160" width="60" height="30" as="geometry" />
        </mxCell>
        <mxCell id="WtgwqhPKlennC71DiVTJ-55" value="cur" style="text;html=1;strokeColor=none;fillColor=none;align=center;verticalAlign=middle;whiteSpace=wrap;rounded=1;" vertex="1" parent="1">
          <mxGeometry x="410" y="1160" width="60" height="30" as="geometry" />
        </mxCell>
        <mxCell id="WtgwqhPKlennC71DiVTJ-56" value="tmp" style="text;html=1;strokeColor=none;fillColor=none;align=center;verticalAlign=middle;whiteSpace=wrap;rounded=1;" vertex="1" parent="1">
          <mxGeometry x="610" y="1160" width="60" height="30" as="geometry" />
        </mxCell>
        <mxCell id="WtgwqhPKlennC71DiVTJ-60" value="(1)" style="text;html=1;strokeColor=#82b366;fillColor=#d5e8d4;align=center;verticalAlign=middle;whiteSpace=wrap;rounded=1;" vertex="1" parent="1">
          <mxGeometry x="610" y="1210" width="60" height="30" as="geometry" />
        </mxCell>
        <mxCell id="WtgwqhPKlennC71DiVTJ-62" value="(2)" style="text;html=1;strokeColor=#82b366;fillColor=#d5e8d4;align=center;verticalAlign=middle;whiteSpace=wrap;rounded=1;" vertex="1" parent="1">
          <mxGeometry x="600" y="1000" width="60" height="30" as="geometry" />
        </mxCell>
        <mxCell id="WtgwqhPKlennC71DiVTJ-64" value="(3)" style="text;html=1;strokeColor=#82b366;fillColor=#d5e8d4;align=center;verticalAlign=middle;whiteSpace=wrap;rounded=1;" vertex="1" parent="1">
          <mxGeometry x="253" y="1030" width="60" height="30" as="geometry" />
        </mxCell>
        <mxCell id="WtgwqhPKlennC71DiVTJ-65" style="edgeStyle=orthogonalEdgeStyle;rounded=1;orthogonalLoop=1;jettySize=auto;html=1;entryX=0;entryY=0.5;entryDx=0;entryDy=0;" edge="1" parent="1" source="WtgwqhPKlennC71DiVTJ-66" target="WtgwqhPKlennC71DiVTJ-67">
          <mxGeometry relative="1" as="geometry" />
        </mxCell>
        <mxCell id="WtgwqhPKlennC71DiVTJ-66" value="&lt;font style=&quot;font-size: 20px;&quot;&gt;[2, 1]&lt;/font&gt;" style="text;html=1;align=center;verticalAlign=middle;whiteSpace=wrap;rounded=1;fillColor=#ffe6cc;strokeColor=#d79b00;" vertex="1" parent="1">
          <mxGeometry x="220" y="1258" width="242" height="130" as="geometry" />
        </mxCell>
        <mxCell id="WtgwqhPKlennC71DiVTJ-67" value="&lt;font style=&quot;font-size: 20px;&quot;&gt;[1, 2]&lt;/font&gt;" style="text;html=1;strokeColor=#d79b00;fillColor=#ffe6cc;align=center;verticalAlign=middle;whiteSpace=wrap;rounded=1;" vertex="1" parent="1">
          <mxGeometry x="592" y="1258" width="242" height="130" as="geometry" />
        </mxCell>
      </root>
    </mxGraphModel>
  </diagram>
</mxfile>
